<?xml version="1.0" encoding="UTF-8" standalone="no"?>
<svg
   xmlns:dc="http://purl.org/dc/elements/1.1/"
   xmlns:cc="http://creativecommons.org/ns#"
   xmlns:rdf="http://www.w3.org/1999/02/22-rdf-syntax-ns#"
   xmlns:svg="http://www.w3.org/2000/svg"
   xmlns="http://www.w3.org/2000/svg"
   xmlns:sodipodi="http://sodipodi.sourceforge.net/DTD/sodipodi-0.dtd"
   xmlns:inkscape="http://www.inkscape.org/namespaces/inkscape"
   height="50"
   version="1.1"
   viewBox="0 0 50 50"
   width="50"
   id="svg2"
   inkscape:version="0.91 r13725"
   sodipodi:docname="help.svg">
  <metadata
     id="metadata15">
    <rdf:RDF>
      <cc:Work
         rdf:about="">
        <dc:format>image/svg+xml</dc:format>
        <dc:type
           rdf:resource="http://purl.org/dc/dcmitype/StillImage" />
        <dc:title />
      </cc:Work>
    </rdf:RDF>
  </metadata>
  <sodipodi:namedview
     pagecolor="#ffffff"
     bordercolor="#666666"
     borderopacity="1"
     objecttolerance="10"
     gridtolerance="10"
     guidetolerance="10"
     inkscape:pageopacity="0"
     inkscape:pageshadow="2"
     inkscape:window-width="1099"
     inkscape:window-height="656"
     id="namedview13"
     showgrid="false"
     inkscape:zoom="7.375"
     inkscape:cx="28.619414"
     inkscape:cy="19.818504"
     inkscape:window-x="143"
     inkscape:window-y="68"
     inkscape:window-maximized="0"
     inkscape:current-layer="svg2" />
  <desc
     id="desc6" />
  <defs
     id="defs8" />
  <g
     id="Page-1"
     style="fill:none;fill-rule:evenodd;stroke:none;stroke-width:1"
     transform="matrix(1.2,0,0,1.2,5.8,5.2)">
    <g
       id="icon-31-book-bookmark"
       style="fill:#157efb">
      <path
         d="M 15,8 11,8 11,29 26,29 26,8.5 26,8 25.495316,8 C 24.669476,8 24,7.3342028 24,6.5 24,5.6715729 24.677109,5 25.495316,5 L 26,5 26,4 8.4925753,4 C 7.115964,4 6,5.1096621 6,6.5 L 6,26.000544 C 6,27.657098 7.343312,29 8.9942021,29 L 10,29 10,8 8.4933662,8 C 7.6672555,8 7,7.3284271 7,6.5 7,5.6657972 7.6686028,5 8.4933662,5 L 23.5,5 C 23.5,5 23,5.7366244 23,6.4735545 23,7.2104845 23.5,8 23.5,8 l -2.5,0 0,12 -3,-3 -3,3 0,-12 0,0 z m 1,0 0,9.599976 2,-2 2,2 L 20,8 16,8 16,8 Z"
         id="book-bookmark"
         style="fill:#4c637b;fill-opacity:1"
         inkscape:connector-curvature="0" />
    </g>
  </g>
</svg>
